<mxfile host="65bd71144e">
    <diagram id="hfzjr2_xws8yyDHaEnFV" name="Page-1">
        <mxGraphModel dx="568" dy="535" grid="1" gridSize="10" guides="1" tooltips="1" connect="1" arrows="1" fold="1" page="1" pageScale="1" pageWidth="850" pageHeight="1100" math="0" shadow="0">
            <root>
                <mxCell id="0"/>
                <mxCell id="1" parent="0"/>
                <mxCell id="2" value="" style="shape=image;verticalLabelPosition=bottom;labelBackgroundColor=#ffffff;verticalAlign=top;aspect=fixed;imageAspect=0;image=https://i.pinimg.com/originals/f4/c8/f1/f4c8f1a4581ec93f513b56e695abd742.png;" vertex="1" parent="1">
                    <mxGeometry x="40" y="90" width="520" height="401" as="geometry"/>
                </mxCell>
            </root>
        </mxGraphModel>
    </diagram>
</mxfile>